<svg version="1.1" id="Layer_1" xmlns="http://www.w3.org/2000/svg" xmlns:xlink="http://www.w3.org/1999/xlink" x="0px" y="0px"
	 width="100%" viewBox="0 0 512 512" enable-background="new 0 0 512 512" xml:space="preserve">

<path fill="#FFC250" opacity="1.000000" stroke="none" 
	d="
M325.000000,513.000000 
	C232.312439,513.000000 139.624878,513.000000 46.787750,512.740723 
	C38.233383,507.049591 35.792103,499.444366 35.811481,489.451996 
	C36.087975,346.884155 35.999924,204.315582 36.000446,61.747200 
	C36.000488,50.432724 43.347633,43.013691 54.535549,42.998165 
	C81.681076,42.960491 108.826591,42.912842 136.045624,42.909996 
	C136.119156,42.950779 136.176788,43.108746 136.230804,43.283382 
	C136.402435,43.678230 136.564972,43.857796 136.818314,44.463287 
	C136.833084,54.287998 136.801956,63.646130 136.616364,73.121559 
	C136.270706,73.418747 136.116562,73.626160 135.534424,73.922775 
	C115.583931,73.999611 96.098465,74.007690 76.613014,74.033501 
	C69.143715,74.043396 66.993019,76.109184 66.992485,83.394142 
	C66.983040,213.132080 66.983116,342.869995 66.991798,472.607941 
	C66.992302,480.059326 68.981750,482.021759 76.476875,482.023224 
	C126.273590,482.032867 176.070312,482.033173 225.867020,482.021912 
	C230.694748,482.020813 235.522430,481.920441 240.749817,481.899933 
	C242.785889,481.911377 244.422256,481.889038 246.521484,481.911194 
	C265.650787,481.926270 284.317200,481.896820 303.448669,481.938354 
	C314.943512,482.094482 325.973328,482.179657 337.001587,482.714752 
	C336.998352,485.324310 336.928467,487.486450 337.006958,489.643188 
	C337.338013,498.732910 334.852631,506.365143 326.286316,511.009125 
	C325.676910,511.339508 325.420532,512.321167 325.000000,513.000000 
z"/>

<path fill="#C2D0DA" opacity="1.000000" stroke="none" 
	d="
M136.045624,42.909996 
	C138.550201,33.304474 140.976364,29.422775 152.969971,29.957094 
	C158.601669,30.207989 164.254852,30.068224 169.896332,29.979591 
	C174.953629,29.900135 176.960007,27.795729 177.001816,22.840324 
	C177.052383,16.844706 176.323196,10.669238 180.764313,5.643728 
	C182.011978,4.231893 183.348541,2.898644 184.322174,1.264673 
	C206.354233,1.000000 228.708450,1.000000 251.531342,1.000000 
	C252.007965,1.493484 251.821533,2.287446 252.052200,2.436655 
	C258.354462,6.513480 259.481995,12.783827 258.943237,19.480177 
	C258.123840,29.663818 262.061676,30.310349 269.777313,30.027193 
	C273.933563,29.874662 278.106384,30.148823 282.260681,29.971394 
	C293.481384,29.492155 296.687714,31.542088 299.724548,42.810902 
	C299.361816,53.635769 299.262848,63.763023 298.684448,73.929047 
	C244.457123,73.953125 190.709259,73.938438 136.938431,73.688766 
	C136.915466,73.453781 136.770828,73.004257 136.770828,73.004257 
	C136.801956,63.646130 136.833084,54.287998 136.822723,44.260509 
	C136.677933,43.307312 136.476456,43.146511 136.176788,43.108746 
	C136.176788,43.108746 136.119156,42.950779 136.045624,42.909996 
z"/>
<path fill="#EAB14D" opacity="1.000000" stroke="none" 
	d="
M325.468658,513.000000 
	C325.420532,512.321167 325.676910,511.339508 326.286316,511.009125 
	C334.852631,506.365143 337.338013,498.732910 337.006958,489.643188 
	C336.928467,487.486450 336.998352,485.324310 337.465881,482.644775 
	C345.425690,482.104858 352.919769,482.109222 360.413452,482.057495 
	C367.084564,482.011444 369.078033,480.094208 369.092468,473.455902 
	C369.136963,452.971619 369.131195,432.487183 369.107025,412.002838 
	C369.074005,384.026031 369.006042,356.049316 369.100159,327.753723 
	C379.168182,311.623566 389.089142,295.812195 399.270752,280.323608 
	C399.687592,282.789093 399.979523,284.931702 399.980286,287.074463 
	C400.004333,353.886810 399.992188,420.699188 400.036102,487.511505 
	C400.037476,489.603790 400.572876,491.695740 400.859344,493.787842 
	C400.474884,502.137939 395.914551,507.919861 389.682404,512.739136 
	C368.645782,513.000000 347.291534,513.000000 325.468658,513.000000 
z"/>
<path fill="#EAB14D" opacity="1.000000" stroke="none" 
	d="
M324.981445,43.193176 
	C344.785034,43.129307 364.589386,42.942196 384.391785,43.066616 
	C391.585205,43.111816 398.888824,50.580872 400.017090,58.186382 
	C400.179321,59.279873 400.603851,60.334454 400.636749,62.117989 
	C400.244781,63.810722 400.016602,64.792519 400.016724,65.774292 
	C400.021576,101.534584 400.047668,137.294876 400.005005,173.405121 
	C397.806427,177.470978 395.819397,181.280045 393.514435,184.885864 
	C385.780426,196.984802 377.932922,209.011230 369.910950,221.025574 
	C369.692993,220.985703 369.252441,220.937912 369.205444,220.475647 
	C369.142334,174.396942 369.136292,128.780487 369.099884,83.164070 
	C369.094055,75.881577 367.186188,74.040489 359.965576,73.997955 
	C352.309998,73.952866 344.654510,73.891098 336.997681,73.380325 
	C337.907959,61.195618 336.644501,50.350803 325.126892,43.658531 
	C325.023285,43.598331 325.027557,43.352402 324.981445,43.193176 
z"/>
<path fill="#FC8086" opacity="1.000000" stroke="none" 
	d="
M399.010101,280.000854 
	C389.089142,295.812195 379.168182,311.623566 368.834717,327.948395 
	C359.314575,342.797791 350.165039,357.107300 341.109650,371.476135 
	C329.040405,390.627380 317.044312,409.824738 304.760132,429.217651 
	C299.485962,435.136963 294.468384,440.840851 289.256958,446.211182 
	C285.397156,441.238556 281.731201,436.599457 278.357056,431.801727 
	C281.368256,427.685333 284.207245,423.803802 286.787476,419.757294 
	C302.886841,394.509003 318.959229,369.243378 334.981506,343.946106 
	C357.055969,309.093262 379.080841,274.209076 401.121307,239.334717 
	C411.074554,223.585861 421.014160,207.828354 431.279846,192.194855 
	C437.092804,195.901566 442.585815,199.488205 448.078827,203.074844 
	C442.720123,211.711441 437.396301,220.369919 431.995209,228.979935 
	C421.682495,245.419647 411.325775,261.831787 400.639282,278.657410 
	C399.864227,279.373291 399.437164,279.687073 399.010101,280.000854 
z"/>
<path fill="#8C9BA6" opacity="1.000000" stroke="none" 
	d="
M415.835358,148.873962 
	C420.501831,141.474518 424.870544,133.863373 429.931885,126.744629 
	C433.774780,121.339539 446.448303,118.803162 452.647400,121.982773 
	C458.416199,124.941673 464.013824,128.321106 469.370056,131.979141 
	C479.928955,139.190308 480.944092,152.512558 473.333282,164.166962 
	C470.403656,168.653061 467.584747,173.211502 464.074280,177.752991 
	C451.478302,170.216507 439.564117,162.598373 427.544525,155.150314 
	C423.787628,152.822311 419.746429,150.953171 415.835358,148.873962 
z"/>
<path fill="#C9E1E6" opacity="1.000000" stroke="none" 
	d="
M415.538269,149.059479 
	C419.746429,150.953171 423.787628,152.822311 427.544525,155.150314 
	C439.564117,162.598373 451.478302,170.216507 463.756836,177.897095 
	C458.960114,186.278534 453.839752,194.531845 448.399109,202.930008 
	C442.585815,199.488205 437.092804,195.901566 431.068298,191.930695 
	C426.361755,189.019318 422.186737,186.492188 417.790894,183.713028 
	C412.048523,179.965240 406.526917,176.469482 401.008057,172.642029 
	C401.059265,171.871750 401.107758,171.433167 401.156250,170.994568 
	C405.851196,163.744690 410.546204,156.494827 415.538269,149.059479 
z"/>
<path fill="#FFC250" opacity="1.000000" stroke="none" 
	d="
M324.518250,43.126060 
	C325.027557,43.352402 325.023285,43.598331 325.126892,43.658531 
	C336.644501,50.350803 337.907959,61.195618 336.532715,73.439606 
	C325.037872,74.032845 314.006805,74.110535 302.596741,74.132889 
	C301.199829,74.015129 300.181854,73.952698 299.163879,73.890274 
	C299.262848,63.763023 299.361816,53.635769 299.749054,43.194489 
	C308.043274,42.939957 316.049164,42.999451 324.518250,43.126060 
z"/>
<path fill="#FF9966" opacity="1.000000" stroke="none" 
	d="
M399.270752,280.323608 
	C399.437164,279.687073 399.864227,279.373291 400.562317,279.013031 
	C400.888885,280.129089 400.993011,281.291626 400.993042,282.454163 
	C400.995331,352.602905 400.989044,422.751617 400.921478,493.344116 
	C400.572876,491.695740 400.037476,489.603790 400.036102,487.511505 
	C399.992188,420.699188 400.004333,353.886810 399.980286,287.074463 
	C399.979523,284.931702 399.687592,282.789093 399.270752,280.323608 
z"/>
<path fill="#FF9966" opacity="1.000000" stroke="none" 
	d="
M401.087799,170.529266 
	C401.107758,171.433167 401.059265,171.871750 400.774231,172.659821 
	C400.537720,173.009293 400.070801,173.055176 400.070801,173.055176 
	C400.047668,137.294876 400.021576,101.534584 400.016724,65.774292 
	C400.016602,64.792519 400.244781,63.810722 400.612793,62.522957 
	C400.912537,98.165970 400.965942,134.114960 401.087799,170.529266 
z"/>
<path fill="#F5F5F5" opacity="1.000000" stroke="none" 
	d="
M298.684448,73.929047 
	C300.181854,73.952698 301.199829,74.015129 302.675690,74.480438 
	C304.088654,78.471291 305.791748,82.043465 305.867920,85.650009 
	C306.179962,100.423180 305.995819,115.206841 305.526276,129.990997 
	C303.229950,129.997101 301.401703,130.000320 299.573456,130.000381 
	C276.470978,130.001205 253.368454,129.974228 230.266083,130.019928 
	C223.928284,130.032471 220.830139,132.945923 220.993546,138.422791 
	C221.146072,143.533890 224.493942,145.967056 231.705261,145.977585 
	C256.469727,146.013702 281.234283,145.997864 305.998779,146.470367 
	C305.998779,192.575928 305.985901,238.212936 306.007019,283.849945 
	C306.012939,296.672974 306.118866,309.495972 306.086823,322.642151 
	C304.697601,325.095001 303.429291,327.242889 302.098907,329.351593 
	C286.205444,354.543457 270.198517,379.664795 254.495331,404.974640 
	C251.554138,409.715149 247.856857,414.535736 248.646027,421.025024 
	C247.931824,421.733948 247.342651,422.209534 247.202606,422.792908 
	C243.448441,438.431427 240.030350,454.158691 235.872543,469.688080 
	C234.348740,475.379456 235.991287,478.859955 240.350143,481.866180 
	C235.522430,481.920441 230.694748,482.020813 225.867020,482.021912 
	C176.070312,482.033173 126.273590,482.032867 76.476875,482.023224 
	C68.981750,482.021759 66.992302,480.059326 66.991798,472.607941 
	C66.983116,342.869995 66.983040,213.132080 66.992485,83.394142 
	C66.993019,76.109184 69.143715,74.043396 76.613014,74.033501 
	C96.098465,74.007690 115.583931,73.999611 135.772827,73.970474 
	C136.476257,73.956497 136.961395,73.923752 136.961395,73.923752 
	C190.709259,73.938438 244.457123,73.953125 298.684448,73.929047 
M189.824509,150.500000 
	C189.824280,142.667618 189.856171,134.835052 189.815811,127.002876 
	C189.763504,116.851509 185.240829,112.240982 175.221100,112.218460 
	C157.056610,112.177635 138.891891,112.176338 120.727409,112.219139 
	C110.728951,112.242699 106.191132,116.870773 106.170761,127.034653 
	C106.134697,145.032516 106.133102,163.030563 106.171165,181.028427 
	C106.192604,191.167953 110.748184,195.808121 120.756874,195.835205 
	C138.921326,195.884369 157.086105,195.885681 175.250534,195.834671 
	C185.245880,195.806610 189.773163,191.157745 189.815369,180.996582 
	C189.856201,171.164551 189.824234,161.332199 189.824509,150.500000 
M106.160240,399.500000 
	C106.160538,409.484436 106.114830,419.469116 106.174232,429.453186 
	C106.232269,439.207306 110.866074,443.855804 120.579285,443.877930 
	C138.883942,443.919678 157.188828,443.922607 175.493469,443.876434 
	C184.963593,443.852570 189.756744,439.208374 189.798355,429.858551 
	C189.880554,411.387756 189.870880,392.916199 189.802307,374.445282 
	C189.768082,365.222046 185.200653,360.382111 176.103760,360.310059 
	C157.301025,360.161072 138.495209,360.151520 119.692757,360.319550 
	C110.771240,360.399261 106.293556,365.128845 106.183807,374.038483 
	C106.083374,382.191162 106.161194,390.346069 106.160240,399.500000 
M106.160492,303.329987 
	C106.198860,315.841705 110.186813,319.884399 122.525208,319.889038 
	C139.858002,319.895569 157.190842,319.907562 174.523590,319.884064 
	C185.284302,319.869476 189.797882,315.414825 189.815887,304.762115 
	C189.845734,287.096039 189.837265,269.429871 189.819229,251.763763 
	C189.807877,240.649353 185.473251,236.242142 174.434372,236.217331 
	C156.768341,236.177628 139.102081,236.173950 121.436058,236.219025 
	C110.627144,236.246597 106.183647,240.682480 106.167580,251.372742 
	C106.142029,268.372162 106.160728,285.371674 106.160492,303.329987 
M294.545197,254.391922 
	C272.392639,254.278717 250.239746,254.063126 228.087830,254.138443 
	C223.642700,254.153549 220.947495,257.739899 220.993011,262.144287 
	C221.037979,266.496704 223.819458,269.849274 228.381851,269.884613 
	C249.379913,270.047302 270.385498,270.195984 291.372589,269.692200 
	C294.231934,269.623535 298.113403,266.420380 299.533295,263.649597 
	C301.317108,260.168610 299.139221,256.585205 294.545197,254.391922 
M238.515686,302.000000 
	C250.514023,301.998108 262.512787,302.053314 274.510468,301.965637 
	C279.191925,301.931427 283.479218,298.359924 283.859192,294.527679 
	C284.210693,290.983246 281.183594,287.707489 276.347900,286.659729 
	C274.418121,286.241608 272.404175,286.048187 270.427185,286.038910 
	C258.595734,285.983276 246.763489,285.956146 234.932571,286.051544 
	C232.132324,286.074158 229.314743,286.471619 226.542847,286.926514 
	C221.676163,287.725189 220.460449,291.173126 221.066605,295.431854 
	C221.618484,299.309235 223.974213,301.738098 228.026794,301.956055 
	C231.184067,302.125885 234.357437,301.996429 238.515686,302.000000 
M282.770782,166.843063 
	C280.301941,162.213470 275.787598,162.106598 271.486115,162.061646 
	C258.491394,161.925858 245.494186,161.983429 232.498337,162.046310 
	C230.694412,162.055023 228.890610,162.503922 227.090393,162.773392 
	C222.412048,163.473694 220.636795,166.335434 220.988327,170.869324 
	C221.355225,175.601196 224.442062,177.825684 228.594849,177.883530 
	C244.253510,178.101624 259.919495,178.123734 275.577515,177.882690 
	C281.204620,177.796051 284.332336,172.975479 282.770782,166.843063 
z"/>
<path fill="#EAEAEA" opacity="1.000000" stroke="none" 
	d="
M305.016785,429.002289 
	C317.044312,409.824738 329.040405,390.627380 341.109650,371.476135 
	C350.165039,357.107300 359.314575,342.797791 368.687622,328.267212 
	C369.006042,356.049316 369.074005,384.026031 369.107025,412.002838 
	C369.131195,432.487183 369.136963,452.971619 369.092468,473.455902 
	C369.078033,480.094208 367.084564,482.011444 360.413452,482.057495 
	C352.919769,482.109222 345.425690,482.104858 337.467468,482.194855 
	C325.973328,482.179657 314.943512,482.094482 303.523560,481.585571 
	C304.088959,477.787537 305.774078,474.433533 305.868591,471.035278 
	C306.204987,458.940582 306.042633,446.830475 305.956024,434.727020 
	C305.942352,432.816650 305.344513,430.910431 305.016785,429.002289 
z"/>
<path fill="#7D8C97" opacity="1.000000" stroke="none" 
	d="
M240.749817,481.899933 
	C235.991287,478.859955 234.348740,475.379456 235.872543,469.688080 
	C240.030350,454.158691 243.448441,438.431427 247.202606,422.792908 
	C247.342651,422.209534 247.931824,421.733948 249.077393,421.066956 
	C255.212708,422.036194 260.582336,423.146576 266.184448,424.490143 
	C270.299713,427.135651 274.182495,429.548004 278.065277,431.960327 
	C281.731201,436.599457 285.397156,441.238556 289.082031,446.480530 
	C274.753510,458.677826 260.406067,470.272278 246.058640,481.866699 
	C244.422256,481.889038 242.785889,481.911377 240.749817,481.899933 
z"/>
<path fill="#F4F4F4" opacity="1.000000" stroke="none" 
	d="
M246.521484,481.911194 
	C260.406067,470.272278 274.753510,458.677826 289.275879,446.814087 
	C294.468384,440.840851 299.485962,435.136963 304.760132,429.217651 
	C305.344513,430.910431 305.942352,432.816650 305.956024,434.727020 
	C306.042633,446.830475 306.204987,458.940582 305.868591,471.035278 
	C305.774078,474.433533 304.088959,477.787537 303.058533,481.514618 
	C284.317200,481.896820 265.650787,481.926270 246.521484,481.911194 
z"/>
<path fill="#F4C569" opacity="1.000000" stroke="none" 
	d="
M136.938431,73.688766 
	C136.961395,73.923752 136.476257,73.956497 136.237854,73.908798 
	C136.116562,73.626160 136.270706,73.418747 136.616364,73.121559 
	C136.770828,73.004257 136.915466,73.453781 136.938431,73.688766 
z"/>
<path fill="#F4C569" opacity="1.000000" stroke="none" 
	d="
M136.230804,43.283382 
	C136.476456,43.146511 136.677933,43.307312 136.776825,43.793930 
	C136.564972,43.857796 136.402435,43.678230 136.230804,43.283382 
z"/>
<path fill="#EAEAEA" opacity="1.000000" stroke="none" 
	d="
M306.178894,322.318970 
	C306.118866,309.495972 306.012939,296.672974 306.007019,283.849945 
	C305.985901,238.212936 305.998779,192.575928 306.467255,146.468323 
	C312.059204,145.988495 317.191467,146.164734 322.303833,145.921890 
	C328.333557,145.635452 331.179535,142.691254 330.996796,137.481964 
	C330.830048,132.730133 327.664734,130.091675 321.860687,130.015396 
	C316.572693,129.945908 311.283203,129.991669 305.994354,129.986633 
	C305.995819,115.206841 306.179962,100.423180 305.867920,85.650009 
	C305.791748,82.043465 304.088654,78.471291 303.054626,74.535767 
	C314.006805,74.110535 325.037872,74.032845 336.533966,73.895889 
	C344.654510,73.891098 352.309998,73.952866 359.965576,73.997955 
	C367.186188,74.040489 369.094055,75.881577 369.099884,83.164070 
	C369.136292,128.780487 369.142334,174.396942 369.127014,220.799866 
	C369.114105,222.028259 369.132599,222.470154 369.024475,223.244415 
	C356.322968,243.510498 343.784973,263.467621 331.160095,283.369629 
	C322.898071,296.393982 314.510345,309.338623 306.178894,322.318970 
z"/>
<path fill="#FC8086" opacity="1.000000" stroke="none" 
	d="
M306.086853,322.642151 
	C314.510345,309.338623 322.898071,296.393982 331.160095,283.369629 
	C343.784973,263.467621 356.322968,243.510498 369.222595,223.065247 
	C369.741211,222.057617 369.935059,221.561523 370.128906,221.065430 
	C377.932922,209.011230 385.780426,196.984802 393.514435,184.885864 
	C395.819397,181.280045 397.806427,177.470978 400.004974,173.405121 
	C400.070801,173.055176 400.537720,173.009293 400.771545,172.991516 
	C406.526917,176.469482 412.048523,179.965240 417.624023,184.009903 
	C401.520538,209.933105 385.319763,235.279953 369.215424,260.687897 
	C341.989258,303.642975 314.812500,346.629364 287.641083,389.619080 
	C280.362885,401.134399 273.179077,412.709381 265.951965,424.256958 
	C260.582336,423.146576 255.212708,422.036194 249.411713,420.883850 
	C247.856857,414.535736 251.554138,409.715149 254.495331,404.974640 
	C270.198517,379.664795 286.205444,354.543457 302.098907,329.351593 
	C303.429291,327.242889 304.697601,325.095001 306.086853,322.642151 
z"/>
<path fill="#EBBE6E" opacity="1.000000" stroke="none" 
	d="
M369.910950,221.025574 
	C369.935059,221.561523 369.741211,222.057617 369.349243,222.732880 
	C369.132599,222.470154 369.114105,222.028259 369.174011,221.262131 
	C369.252441,220.937912 369.692993,220.985703 369.910950,221.025574 
z"/>
<path fill="#FB636F" opacity="1.000000" stroke="none" 
	d="
M266.184448,424.490143 
	C273.179077,412.709381 280.362885,401.134399 287.641083,389.619080 
	C314.812500,346.629364 341.989258,303.642975 369.215424,260.687897 
	C385.319763,235.279953 401.520538,209.933105 417.844818,184.261917 
	C422.186737,186.492188 426.361755,189.019318 430.748352,191.810623 
	C421.014160,207.828354 411.074554,223.585861 401.121307,239.334717 
	C379.080841,274.209076 357.055969,309.093262 334.981506,343.946106 
	C318.959229,369.243378 302.886841,394.509003 286.787476,419.757294 
	C284.207245,423.803802 281.368256,427.685333 278.357056,431.801727 
	C274.182495,429.548004 270.299713,427.135651 266.184448,424.490143 
z"/>
<path fill="#67B49D" opacity="1.000000" stroke="none" 
	d="
M189.824371,151.000000 
	C189.824234,161.332199 189.856201,171.164551 189.815369,180.996582 
	C189.773163,191.157745 185.245880,195.806610 175.250534,195.834671 
	C157.086105,195.885681 138.921326,195.884369 120.756874,195.835205 
	C110.748184,195.808121 106.192604,191.167953 106.171165,181.028427 
	C106.133102,163.030563 106.134697,145.032516 106.170761,127.034653 
	C106.191132,116.870773 110.728951,112.242699 120.727409,112.219139 
	C138.891891,112.176338 157.056610,112.177635 175.221100,112.218460 
	C185.240829,112.240982 189.763504,116.851509 189.815811,127.002876 
	C189.856171,134.835052 189.824280,142.667618 189.824371,151.000000 
M130.611145,165.895981 
	C132.111893,167.872299 133.446198,170.006729 135.145004,171.794876 
	C139.970657,176.874298 146.129700,177.292053 150.529343,171.893127 
	C157.768539,163.009674 164.416397,153.628326 171.013077,144.245667 
	C173.434570,140.801498 172.183533,136.334732 168.744614,134.160187 
	C165.194489,131.915298 161.744888,132.320633 158.814835,135.394730 
	C157.558075,136.713287 156.525238,138.249893 155.429321,139.716309 
	C151.385651,145.126984 147.358139,150.549744 143.007156,156.394272 
	C141.037750,153.876022 139.435577,151.816360 137.821472,149.766083 
	C135.578659,146.917191 130.035278,145.883270 127.067917,147.751938 
	C123.880402,149.759247 122.843117,154.285507 125.011047,157.964493 
	C126.526894,160.536880 128.440277,162.875031 130.611145,165.895981 
z"/>
<path fill="#67B49D" opacity="1.000000" stroke="none" 
	d="
M106.160355,399.000000 
	C106.161194,390.346069 106.083374,382.191162 106.183807,374.038483 
	C106.293556,365.128845 110.771240,360.399261 119.692757,360.319550 
	C138.495209,360.151520 157.301025,360.161072 176.103760,360.310059 
	C185.200653,360.382111 189.768082,365.222046 189.802307,374.445282 
	C189.870880,392.916199 189.880554,411.387756 189.798355,429.858551 
	C189.756744,439.208374 184.963593,443.852570 175.493469,443.876434 
	C157.188828,443.922607 138.883942,443.919678 120.579285,443.877930 
	C110.866074,443.855804 106.232269,439.207306 106.174232,429.453186 
	C106.114830,419.469116 106.160538,409.484436 106.160355,399.000000 
M166.860565,398.337524 
	C168.297073,396.298187 169.964355,394.380615 171.118469,392.192352 
	C173.076599,388.479553 172.414825,384.944794 169.016113,382.432922 
	C165.645004,379.941437 162.105209,380.224457 159.075760,383.208038 
	C157.665543,384.596924 156.545486,386.289307 155.351318,387.887054 
	C151.320572,393.279907 147.315552,398.692017 142.964767,404.549011 
	C141.050323,401.991241 139.639954,399.969025 138.086777,398.063141 
	C135.567902,394.972229 129.635651,393.791199 126.916977,395.748535 
	C123.546417,398.175201 122.856133,402.933502 125.549042,406.935181 
	C128.139511,410.784668 130.891968,414.533813 133.728027,418.207550 
	C139.804520,426.078888 147.102615,424.978516 152.535873,417.723969 
	C157.207581,411.486206 161.797623,405.187286 166.860565,398.337524 
z"/>
<path fill="#67B49D" opacity="1.000000" stroke="none" 
	d="
M106.160599,302.850586 
	C106.160728,285.371674 106.142029,268.372162 106.167580,251.372742 
	C106.183647,240.682480 110.627144,236.246597 121.436058,236.219025 
	C139.102081,236.173950 156.768341,236.177628 174.434372,236.217331 
	C185.473251,236.242142 189.807877,240.649353 189.819229,251.763763 
	C189.837265,269.429871 189.845734,287.096039 189.815887,304.762115 
	C189.797882,315.414825 185.284302,319.869476 174.523590,319.884064 
	C157.190842,319.907562 139.858002,319.895569 122.525208,319.889038 
	C110.186813,319.884399 106.198860,315.841705 106.160599,302.850586 
M164.505768,259.996948 
	C162.252029,261.104584 159.444580,261.702637 157.859192,263.425323 
	C154.503525,267.071594 151.673264,271.226685 148.830750,275.314423 
	C143.660217,282.750031 143.722061,282.793030 137.690964,276.181458 
	C134.644547,272.841827 130.405853,272.186859 127.023071,274.533051 
	C123.609909,276.900299 122.684937,281.262299 125.236412,285.105774 
	C128.262894,289.664734 131.455215,294.148651 134.954102,298.349915 
	C139.068680,303.290436 146.793045,303.532318 150.713776,298.555176 
	C157.698914,289.688019 164.411789,280.584534 170.806625,271.282959 
	C174.242691,266.285065 171.485214,261.214966 164.505768,259.996948 
z"/>
<path fill="#DEEAFB" opacity="1.000000" stroke="none" 
	d="
M305.526276,129.990997 
	C311.283203,129.991669 316.572693,129.945908 321.860687,130.015396 
	C327.664734,130.091675 330.830048,132.730133 330.996796,137.481964 
	C331.179535,142.691254 328.333557,145.635452 322.303833,145.921890 
	C317.191467,146.164734 312.059204,145.988495 306.467255,145.999771 
	C281.234283,145.997864 256.469727,146.013702 231.705261,145.977585 
	C224.493942,145.967056 221.146072,143.533890 220.993546,138.422791 
	C220.830139,132.945923 223.928284,130.032471 230.266083,130.019928 
	C253.368454,129.974228 276.470978,130.001205 299.573456,130.000381 
	C301.401703,130.000320 303.229950,129.997101 305.526276,129.990997 
z"/>
<path fill="#DEEAFB" opacity="1.000000" stroke="none" 
	d="
M294.928650,254.551392 
	C299.139221,256.585205 301.317108,260.168610 299.533295,263.649597 
	C298.113403,266.420380 294.231934,269.623535 291.372589,269.692200 
	C270.385498,270.195984 249.379913,270.047302 228.381851,269.884613 
	C223.819458,269.849274 221.037979,266.496704 220.993011,262.144287 
	C220.947495,257.739899 223.642700,254.153549 228.087830,254.138443 
	C250.239746,254.063126 272.392639,254.278717 294.928650,254.551392 
z"/>
<path fill="#DEEAFB" opacity="1.000000" stroke="none" 
	d="
M238.019669,302.000000 
	C234.357437,301.996429 231.184067,302.125885 228.026794,301.956055 
	C223.974213,301.738098 221.618484,299.309235 221.066605,295.431854 
	C220.460449,291.173126 221.676163,287.725189 226.542847,286.926514 
	C229.314743,286.471619 232.132324,286.074158 234.932571,286.051544 
	C246.763489,285.956146 258.595734,285.983276 270.427185,286.038910 
	C272.404175,286.048187 274.418121,286.241608 276.347900,286.659729 
	C281.183594,287.707489 284.210693,290.983246 283.859192,294.527679 
	C283.479218,298.359924 279.191925,301.931427 274.510468,301.965637 
	C262.512787,302.053314 250.514023,301.998108 238.019669,302.000000 
z"/>
<path fill="#DEEAFB" opacity="1.000000" stroke="none" 
	d="
M282.891266,167.203262 
	C284.332336,172.975479 281.204620,177.796051 275.577515,177.882690 
	C259.919495,178.123734 244.253510,178.101624 228.594849,177.883530 
	C224.442062,177.825684 221.355225,175.601196 220.988327,170.869324 
	C220.636795,166.335434 222.412048,163.473694 227.090393,162.773392 
	C228.890610,162.503922 230.694412,162.055023 232.498337,162.046310 
	C245.494186,161.983429 258.491394,161.925858 271.486115,162.061646 
	C275.787598,162.106598 280.301941,162.213470 282.891266,167.203262 
z"/>
<path fill="#F4F8F8" opacity="1.000000" stroke="none" 
	d="
M130.393616,165.606903 
	C128.440277,162.875031 126.526894,160.536880 125.011047,157.964493 
	C122.843117,154.285507 123.880402,149.759247 127.067917,147.751938 
	C130.035278,145.883270 135.578659,146.917191 137.821472,149.766083 
	C139.435577,151.816360 141.037750,153.876022 143.007156,156.394272 
	C147.358139,150.549744 151.385651,145.126984 155.429321,139.716309 
	C156.525238,138.249893 157.558075,136.713287 158.814835,135.394730 
	C161.744888,132.320633 165.194489,131.915298 168.744614,134.160187 
	C172.183533,136.334732 173.434570,140.801498 171.013077,144.245667 
	C164.416397,153.628326 157.768539,163.009674 150.529343,171.893127 
	C146.129700,177.292053 139.970657,176.874298 135.145004,171.794876 
	C133.446198,170.006729 132.111893,167.872299 130.393616,165.606903 
z"/>
<path fill="#F4F8F8" opacity="1.000000" stroke="none" 
	d="
M166.642151,398.626465 
	C161.797623,405.187286 157.207581,411.486206 152.535873,417.723969 
	C147.102615,424.978516 139.804520,426.078888 133.728027,418.207550 
	C130.891968,414.533813 128.139511,410.784668 125.549042,406.935181 
	C122.856133,402.933502 123.546417,398.175201 126.916977,395.748535 
	C129.635651,393.791199 135.567902,394.972229 138.086777,398.063141 
	C139.639954,399.969025 141.050323,401.991241 142.964767,404.549011 
	C147.315552,398.692017 151.320572,393.279907 155.351318,387.887054 
	C156.545486,386.289307 157.665543,384.596924 159.075760,383.208038 
	C162.105209,380.224457 165.645004,379.941437 169.016113,382.432922 
	C172.414825,384.944794 173.076599,388.479553 171.118469,392.192352 
	C169.964355,394.380615 168.297073,396.298187 166.642151,398.626465 
z"/>
<path fill="#F4F8F8" opacity="1.000000" stroke="none" 
	d="
M164.915588,259.998413 
	C171.485214,261.214966 174.242691,266.285065 170.806625,271.282959 
	C164.411789,280.584534 157.698914,289.688019 150.713776,298.555176 
	C146.793045,303.532318 139.068680,303.290436 134.954102,298.349915 
	C131.455215,294.148651 128.262894,289.664734 125.236412,285.105774 
	C122.684937,281.262299 123.609909,276.900299 127.023071,274.533051 
	C130.405853,272.186859 134.644547,272.841827 137.690964,276.181458 
	C143.722061,282.793030 143.660217,282.750031 148.830750,275.314423 
	C151.673264,271.226685 154.503525,267.071594 157.859192,263.425323 
	C159.444580,261.702637 162.252029,261.104584 164.915588,259.998413 
z"/>
</svg>